<svg width="604" height="56" viewBox="0 0 604 96" fill="none" xmlns="http://www.w3.org/2000/svg">
<path d="M90.5 52.25C90.9583 52.25 91.1875 52.5833 91.1875 53.25C91.1875 53.875 90.9583 54.3125 90.5 54.5625C89.375 55.0208 88.2083 55.4167 87 55.75C85.8333 56.0833 84.75 56.5208 83.75 57.0625C81.4583 58.3125 80.3125 60.3333 80.3125 63.125V83.4375C80.3125 84.3542 78.1042 85.5833 73.6875 87.125C69.3125 88.6667 65.75 89.7917 63 90.5C50.125 93.6667 38.625 93.3333 28.5 89.5C16.875 85.0417 8.64583 77.0625 3.8125 65.5625C1.39583 59.8125 0.1875 54.1042 0.1875 48.4375C0.1875 42.7292 0.75 37.9375 1.875 34.0625C5.29167 22.2292 12.4583 13.125 23.375 6.75C30.5 2.58333 37.9792 0.5 45.8125 0.5C53.6875 0.5 62.0417 2.08333 70.875 5.25C72.5 5.83333 73.4167 6.125 73.625 6.125H74.375L76.875 5.5H78.4375C78.8958 5.5 79.125 5.72917 79.125 6.1875V27C79.125 27.7917 78.6667 28.1875 77.75 28.1875H77.5C76.7083 28.1042 76.1667 27.0417 75.875 25C75.7917 24.5833 75.7292 24.2708 75.6875 24.0625C71.5208 11.0208 62.7292 4.5 49.3125 4.5C38.5625 4.5 29.9792 8.5625 23.5625 16.6875C17.1875 24.8125 14 34.4792 14 45.6875C14 56.8958 17.2083 66.8125 23.625 75.4375C30.0833 84.0208 38.9375 88.3125 50.1875 88.3125C55.9792 88.3125 60.75 87.4167 64.5 85.625C65.9583 84.9167 67.0833 84.0208 67.875 82.9375V65.8125C67.875 61.9375 66.7708 59.1042 64.5625 57.3125C62.3542 55.4792 58.2917 54.5625 52.375 54.5625C51.9167 54.5625 51.6875 54.1875 51.6875 53.4375C51.6875 52.6458 51.9167 52.25 52.375 52.25H90.5ZM127.625 90.5C127.625 90.8333 127.458 91 127.125 91H95.1875C94.8542 91 94.6875 90.8333 94.6875 90.5V89C94.6875 88.6667 94.9583 88.5 95.5 88.5C101.208 88.25 105.062 85.2083 107.062 79.375L132.562 5.5625C132.604 5.47917 132.625 5.375 132.625 5.25L131.938 3.1875C131.938 2.97917 132.021 2.875 132.188 2.875H144.688C144.771 2.91667 144.875 2.95833 145 3C145.167 3.04167 145.292 3.16667 145.375 3.375L171.812 77.5625C172.396 78.6875 172.854 79.7083 173.188 80.625C173.562 81.5417 173.979 82.375 174.438 83.125C175.438 84.8333 177.083 86.1458 179.375 87.0625C181.292 88.0208 183.042 88.5 184.625 88.5C184.958 88.5 185.125 88.6875 185.125 89.0625V90.5C185.125 90.8333 184.958 91 184.625 91H146.375C146.042 91 145.875 90.8333 145.875 90.5V89C145.875 88.6667 146.646 88.4583 148.188 88.375C149.729 88.2917 151 88.2083 152 88.125C157.792 87.5 160.688 85.5417 160.688 82.25C160.688 82 160.646 81.7083 160.562 81.375L151.125 54.75C151.083 54.6667 151 54.4792 150.875 54.1875C150.375 52.7708 149.5 52.0625 148.25 52.0625H126.062C124.812 52.0625 123.833 52.75 123.125 54.125C123 54.4167 122.938 54.5833 122.938 54.625L113.562 82.0625V82.625C113.562 83.7083 114.125 84.6875 115.25 85.5625C117.792 87.5208 121.208 88.5 125.5 88.5H127.125C127.458 88.5 127.625 88.6667 127.625 89V90.5ZM146.125 45.125C146.875 45.125 147.25 44.8125 147.25 44.1875C147.25 43.8542 147.167 43.4792 147 43.0625L137.688 17.4375C137.271 16.3125 136.958 15.75 136.75 15.75C136.542 15.75 136.208 16.3333 135.75 17.5L127 43.0625C126.833 43.4792 126.75 43.9375 126.75 44.4375C126.75 44.8958 127.062 45.125 127.688 45.125H146.125ZM188.5 91C188.167 91 188 90.8333 188 90.5V89C188 88.6667 188.167 88.5 188.5 88.5H190C193.583 88.5 196.708 87.75 199.375 86.25C200.458 85.625 201.354 84.6667 202.062 83.375C202.771 82.0417 203.125 80.5625 203.125 78.9375V12.8125C203.125 10.2292 201.458 8.25 198.125 6.875C195.792 5.875 193.312 5.375 190.688 5.375H189.312C188.979 5.375 188.812 5.20833 188.812 4.875V3.375C188.812 3.04167 188.979 2.875 189.312 2.875H231.625C231.958 2.875 232.125 3.04167 232.125 3.375V4.875C232.125 5.20833 231.958 5.375 231.625 5.375H228.938C224.646 5.375 220.854 5.97917 217.562 7.1875C216.604 7.52083 215.979 8.08333 215.688 8.875C215.438 9.625 215.312 10.9375 215.312 12.8125V82.125C215.396 82.8333 215.771 83.5 216.438 84.125C217.104 84.75 217.854 85.0625 218.688 85.0625H243.375C247.083 85.0625 250.729 82.875 254.312 78.5C255.271 77.3333 256.458 75.7917 257.875 73.875C259.292 71.9167 260.167 70.8125 260.5 70.5625C261.833 69.5625 262.5 69.5833 262.5 70.625C262.5 70.875 262.438 71.125 262.312 71.375L252.875 89.875C252.5 90.625 252.062 91 251.562 91H188.5ZM266 91C265.667 91 265.5 90.8333 265.5 90.5V89C265.5 88.6667 265.667 88.5 266 88.5H267.5C271.083 88.5 274.208 87.75 276.875 86.25C277.958 85.625 278.854 84.6667 279.562 83.375C280.271 82.0417 280.625 80.5625 280.625 78.9375V12.8125C280.625 10.2292 278.958 8.25 275.625 6.875C273.292 5.875 270.812 5.375 268.188 5.375H266.812C266.479 5.375 266.312 5.20833 266.312 4.875V3.375C266.312 3.04167 266.479 2.875 266.812 2.875H309.125C309.458 2.875 309.625 3.04167 309.625 3.375V4.875C309.625 5.20833 309.458 5.375 309.125 5.375H306.438C302.146 5.375 298.354 5.97917 295.062 7.1875C294.104 7.52083 293.479 8.08333 293.188 8.875C292.938 9.625 292.812 10.9375 292.812 12.8125V82.125C292.896 82.8333 293.271 83.5 293.938 84.125C294.604 84.75 295.354 85.0625 296.188 85.0625H320.875C324.583 85.0625 328.229 82.875 331.812 78.5C332.771 77.3333 333.958 75.7917 335.375 73.875C336.792 71.9167 337.667 70.8125 338 70.5625C339.333 69.5625 340 69.5833 340 70.625C340 70.875 339.938 71.125 339.812 71.375L330.375 89.875C330 90.625 329.562 91 329.062 91H266ZM340.938 90.5V88.75C340.938 88.4167 341.104 88.25 341.438 88.25H342.812C344.562 88.125 346.354 88.0625 348.188 88.0625C350.021 88.0208 351.688 87.7917 353.188 87.375C356.604 86.375 358.312 83.875 358.312 79.875V14C358.312 9.875 355.875 7.25 351 6.125C349.625 5.83333 348.229 5.58333 346.812 5.375H345.5C345.167 5.375 345 5.20833 345 4.875V3.375C345 3.04167 345.167 2.875 345.5 2.875H404.938C405.688 2.875 406.229 3.02083 406.562 3.3125C406.896 3.5625 407.104 4.14583 407.188 5.0625L408.312 23.1875C408.312 23.6042 408 23.8125 407.375 23.8125C406.75 23.8125 406.292 23.625 406 23.25C405.75 22.8333 405.417 21.3125 405 18.6875C404.625 16.0625 403.917 13.875 402.875 12.125C401.833 10.375 400 9.27083 397.375 8.8125H371.312C370.771 8.8125 370.5 9.08333 370.5 9.625V41.9375C370.5 42.3542 370.708 42.5625 371.125 42.5625H392.75C398.333 42.5625 401.125 39.3125 401.125 32.8125C401.125 32.4792 401.292 32.3125 401.625 32.3125H403.125C403.458 32.3125 403.625 32.4792 403.625 32.8125V59.5625C403.625 59.8958 403.458 60.0625 403.125 60.0625H401.625C401.292 60.0625 401.125 59.8958 401.125 59.5625C401.125 53.3958 399.333 49.8333 395.75 48.875C394.75 48.625 393.688 48.5 392.562 48.5H371.125C370.708 48.5 370.5 48.7083 370.5 49.125V79.5625C370.5 82.6875 371.938 84.4583 374.812 84.875C375.646 85 376.521 85.0625 377.438 85.0625H398.25C402.542 85.0625 405.875 83.1667 408.25 79.375C409.958 76.6667 411 73.5625 411.375 70.0625C411.5 68.8958 412.125 68.3125 413.25 68.3125C413.75 68.3125 414 68.5833 414 69.125L411.938 90.125C411.688 90.7083 411.396 91 411.062 91H341.438C341.104 91 340.938 90.8333 340.938 90.5ZM422.75 91C422.417 91 422.25 90.5833 422.25 89.75V89C422.25 88.6667 422.417 88.5 422.75 88.5C423 88.5 423.396 88.4583 423.938 88.375C424.479 88.2917 425.042 88.2083 425.625 88.125C426.208 88.0417 426.75 87.9583 427.25 87.875C427.75 87.75 428.104 87.6667 428.312 87.625C432.562 86.6667 434.688 84.25 434.688 80.375V14.375C434.688 10.7917 433.25 8.25 430.375 6.75C428.667 5.83333 426.833 5.375 424.875 5.375H422.5C422.167 5.375 422 5.20833 422 4.875V3.375C422 3.04167 422.25 2.875 422.75 2.875L457.062 1.9375H463.375C470.75 2.4375 476.917 5.125 481.875 10C486.875 14.8333 489.375 20.8125 489.375 27.9375C489.375 35.0208 486.417 40.5417 480.5 44.5C478.667 45.7083 476.688 46.7917 474.562 47.75L493.5 78.6875C496.792 84.1042 501.208 87.9167 506.75 90.125C507.208 90.25 507.438 90.5417 507.438 91C507.438 92.0417 506.75 92.5625 505.375 92.5625C496 92.5625 488.542 89 483 81.875C481.792 80.2917 480.583 78.5208 479.375 76.5625L463.188 51.1875L448.312 50.5H447.812C447.188 50.5 446.875 50.7917 446.875 51.375V80.1875C446.875 82.4792 447.521 84.1875 448.812 85.3125C450.104 86.4375 452.333 87.2083 455.5 87.625C456.333 87.75 457.354 87.9375 458.562 88.1875C459.771 88.3958 460.583 88.5 461 88.5C461.458 88.5 461.688 88.6667 461.688 89V90.5C461.688 90.8333 461.521 91 461.188 91H422.75ZM451.938 5.25C451.438 5.25 450.896 5.27083 450.312 5.3125C449.771 5.3125 449.062 5.33333 448.188 5.375C447.312 5.375 446.875 5.70833 446.875 6.375V44.25L447 46.125C447.125 47 447.521 47.4583 448.188 47.5L454.562 47.875C466.271 47.875 473.333 43.7083 475.75 35.375C476.542 32.75 476.938 29.75 476.938 26.375C476.938 19.7917 474.875 14.6042 470.75 10.8125C466.667 7.02083 461.438 5.125 455.062 5.125C454.479 5.125 453.938 5.14583 453.438 5.1875C452.938 5.1875 452.438 5.20833 451.938 5.25ZM541.125 91C539.708 91 539 90.5833 539 89.75V89.125C539 88.4583 539.604 88.0625 540.812 87.9375C542.062 87.7708 542.875 87.6667 543.25 87.625C546.417 87.2917 548.646 86.5208 549.938 85.3125C551.229 84.0625 551.875 82.2083 551.875 79.75V59.0625C551.875 58.7708 551.812 58.4583 551.688 58.125L526.125 17.375C522.125 11 518.167 7.33333 514.25 6.375C514.042 6.33333 513.667 6.25 513.125 6.125C512.583 6 511.375 5.79167 509.5 5.5C508.833 5.375 508.5 4.91667 508.5 4.125C508.5 3.29167 508.812 2.875 509.438 2.875H545.188C545.896 2.875 546.25 3.29167 546.25 4.125C546.25 4.95833 545.896 5.375 545.188 5.375C542.396 5.66667 540.542 5.95833 539.625 6.25C537.542 7 536.5 8.33333 536.5 10.25C536.5 11.25 536.75 12.1458 537.25 12.9375L558.375 46.6875C558.833 47.3542 559.104 47.7917 559.188 48C559.312 48.1667 559.542 48.25 559.875 48.25C560.25 48.25 560.812 47.6458 561.562 46.4375L578.438 17.75C578.938 16.75 579.5 15.6875 580.125 14.5625C580.792 13.3958 581.125 12.2083 581.125 11C581.125 7.95833 579.042 6.16667 574.875 5.625C573.375 5.41667 572.562 5.1875 572.438 4.9375C572.312 4.6875 572.25 4.375 572.25 4C572.25 3.25 572.604 2.875 573.312 2.875H602.5C603.083 2.875 603.375 3.16667 603.375 3.75C603.375 4.33333 603.271 4.72917 603.062 4.9375C602.896 5.14583 602.646 5.3125 602.312 5.4375C602.021 5.52083 601.688 5.60417 601.312 5.6875C600.938 5.72917 600.125 5.89583 598.875 6.1875C595.958 6.89583 592.792 9.20833 589.375 13.125C589 13.5833 588.792 13.8542 588.75 13.9375L564.062 56.4375V79.75C564.062 82 564.688 83.7708 565.938 85.0625C567.229 86.3542 569.375 87.2083 572.375 87.625C575.417 88 576.938 88.4792 576.938 89.0625V89.75C576.938 90.5833 576.229 91 574.812 91H541.125Z" fill="url(#paint0_linear_79_46)"/>
<defs>
<linearGradient id="paint0_linear_79_46" x1="-7" y1="80" x2="876" y2="80" gradientUnits="userSpaceOnUse">
<stop stop-color="#CA5419"/>
<stop offset="1" stop-color="#FFE8E8"/>
</linearGradient>
</defs>
</svg>
